<?xml version="1.0" encoding="utf-8"?>
<!-- Generator: Adobe Illustrator 21.0.0, SVG Export Plug-In . SVG Version: 6.00 Build 0)  -->
<svg version="1.1" id="Calque_1" xmlns="http://www.w3.org/2000/svg" xmlns:xlink="http://www.w3.org/1999/xlink" x="0px" y="0px"
	 viewBox="0 0 100 111" style="enable-background:new 0 0 100 111;" xml:space="preserve">
<style type="text/css">
	.st0{fill:#4799CF;}
	.st1{fill:#6CBAE5;}
</style>
<g id="flat">
	<path class="st0" d="M75,98.8l-2.3-11.5l-3.9-3.1l-6.9-12L58.6,74l6.9,12l0.7,4.9L75,98.8z"/>
	<path class="st0" d="M25,98.8l8.8-7.8l0.7-4.9l6.9-12l-3.2-1.8l-6.9,12l-3.9,3.1L25,98.8z"/>
	<path class="st0" d="M0,55.5l11.1,3.7l4.6-1.8h13.9v-3.7H15.7l-4.6-1.8L0,55.5z"/>
	<path class="st0" d="M50,14.8c-0.5,0-1-0.2-1.3-0.5l-5.6-5.5c-0.7-0.7-0.7-1.9,0-2.6s1.9-0.7,2.6,0l4.2,4.2l4.2-4.2
		c0.7-0.7,1.9-0.7,2.6,0c0.7,0.7,0.7,1.9,0,2.6l-5.6,5.6C51,14.6,50.5,14.8,50,14.8L50,14.8z"/>
	<g>
		<path class="st1" d="M50,24c-0.5,0-1-0.2-1.3-0.5l-9.3-9.3c-0.7-0.7-0.7-1.9,0-2.6c0.7-0.7,1.9-0.7,2.6,0l7.9,7.9l7.9-7.9
			c0.7-0.7,1.9-0.7,2.6,0c0.7,0.7,0.7,1.9,0,2.6l-9.3,9.3C51,23.9,50.5,24.1,50,24L50,24z"/>
		<path class="st1" d="M50,33.3c-0.5,0-1-0.2-1.3-0.5l-9.3-9.2c-0.7-0.7-0.7-1.9,0-2.6c0.7-0.7,1.9-0.7,2.6,0l7.9,7.9l7.9-7.9
			c0.7-0.7,1.9-0.7,2.6,0c0.7,0.7,0.7,1.9,0,2.6l-9.3,9.2C51,33.1,50.5,33.3,50,33.3L50,33.3z"/>
		<path class="st1" d="M5.5,38.1c-1,0-1.9-0.8-1.9-1.8c0-0.8,0.6-1.6,1.4-1.8l5.8-1.6l-1.6-5.8c-0.3-1,0.3-2,1.3-2.3s2,0.3,2.3,1.3
			l2,7.6c0.3,1-0.3,2-1.3,2.3c0,0,0,0,0,0L6,38C5.8,38.1,5.7,38.1,5.5,38.1z"/>
		<path class="st1" d="M8.5,44.1c-1,0-1.9-0.8-1.9-1.8c0-0.8,0.6-1.6,1.4-1.8l10.9-2.9L16,26.7c-0.3-1,0.3-2,1.3-2.3
			c1-0.3,2,0.3,2.3,1.3l3.4,12.6c0.3,1-0.3,2-1.3,2.3c0,0,0,0,0,0L9,44C8.8,44.1,8.6,44.1,8.5,44.1L8.5,44.1z"/>
		<path class="st1" d="M16.5,48.7c-1,0-1.9-0.8-1.9-1.8c0-0.8,0.6-1.6,1.4-1.8l10.9-2.9L24,31.3c-0.3-1,0.3-2,1.3-2.3
			c1-0.3,2,0.3,2.3,1.3L30.9,43c0.3,1-0.3,2-1.3,2.3c0,0,0,0,0,0L17,48.6C16.8,48.7,16.7,48.7,16.5,48.7L16.5,48.7z"/>
		<path class="st1" d="M11.1,86.2c-1,0-1.9-0.8-1.9-1.9c0-0.2,0-0.3,0.1-0.5l1.6-5.8L5,76.5c-1-0.3-1.6-1.3-1.3-2.3
			C4,73.3,5,72.7,6,73l7.6,2c1,0.3,1.6,1.3,1.3,2.3c0,0,0,0,0,0l-2,7.6C12.7,85.6,11.9,86.2,11.1,86.2z"/>
		<path class="st1" d="M17.7,86.6c-1,0-1.9-0.8-1.9-1.9c0-0.2,0-0.3,0.1-0.5l2.9-10.8L8,70.6c-1-0.3-1.6-1.3-1.3-2.3
			C7,67.3,8,66.7,9,67l12.6,3.4c1,0.3,1.6,1.3,1.3,2.3c0,0,0,0,0,0l-3.4,12.6C19.3,86.1,18.6,86.6,17.7,86.6L17.7,86.6z"/>
		<path class="st1" d="M25.8,82c-1,0-1.9-0.8-1.9-1.9c0-0.2,0-0.3,0.1-0.5l2.9-10.8L16,65.9c-1-0.3-1.6-1.3-1.3-2.3
			c0.3-1,1.3-1.6,2.3-1.3l0,0l12.6,3.4c1,0.3,1.6,1.3,1.3,2.3c0,0,0,0,0,0l-3.4,12.6C27.3,81.4,26.6,82,25.8,82z"/>
		<path class="st1" d="M55.6,105.4c-0.5,0-1-0.2-1.3-0.5l-4.2-4.2l-4.2,4.2c-0.7,0.7-1.9,0.7-2.6,0c-0.7-0.7-0.7-1.9,0-2.6l5.6-5.6
			c0.7-0.7,1.9-0.7,2.6,0c0,0,0,0,0,0l5.6,5.6c0.7,0.7,0.7,1.9,0,2.6C56.5,105.3,56,105.5,55.6,105.4L55.6,105.4z"/>
		<path class="st1" d="M59.3,99.9c-0.5,0-1-0.2-1.3-0.5L50,91.4l-7.9,7.9c-0.7,0.7-1.9,0.7-2.6,0s-0.7-1.9,0-2.6l9.3-9.3
			c0.7-0.7,1.9-0.7,2.6,0c0,0,0,0,0,0l9.3,9.3c0.7,0.7,0.7,1.9,0,2.6C60.2,99.7,59.8,99.9,59.3,99.9L59.3,99.9z"/>
		<path class="st1" d="M59.3,90.6c-0.5,0-1-0.2-1.3-0.5L50,82.2l-7.9,7.9c-0.7,0.7-1.9,0.7-2.6,0s-0.7-1.9,0-2.6l9.3-9.3
			c0.7-0.7,1.9-0.7,2.6,0c0,0,0,0,0,0l9.3,9.3c0.7,0.7,0.7,1.9,0,2.6C60.2,90.5,59.8,90.7,59.3,90.6L59.3,90.6z"/>
		<path class="st1" d="M88.9,86.2c-0.8,0-1.6-0.6-1.8-1.4l-2-7.6c-0.3-1,0.3-2,1.3-2.3c0,0,0,0,0,0l7.6-2c1-0.3,2,0.3,2.3,1.3
			c0.3,1-0.3,2-1.3,2.3l-5.8,1.6l1.6,5.8c0.3,1-0.3,2-1.3,2.3C89.2,86.2,89.1,86.2,88.9,86.2L88.9,86.2z"/>
		<path class="st1" d="M82.3,86.6c-0.8,0-1.6-0.6-1.8-1.4l-3.4-12.6c-0.3-1,0.3-2,1.3-2.3c0,0,0,0,0,0L91,67c1-0.3,2,0.3,2.3,1.3
			c0.3,1-0.3,2-1.3,2.3l0,0l-10.9,2.9L84,84.3c0.3,1-0.3,2-1.3,2.3C82.6,86.6,82.4,86.6,82.3,86.6L82.3,86.6z"/>
		<path class="st1" d="M74.2,82c-0.8,0-1.6-0.6-1.8-1.4L69.1,68c-0.3-1,0.3-2,1.3-2.3c0,0,0,0,0,0L83,62.4c1-0.3,2,0.3,2.3,1.3
			s-0.3,2-1.3,2.3l0,0l-10.9,2.9L76,79.7c0.3,1-0.3,2-1.3,2.3C74.6,82,74.4,82,74.2,82L74.2,82z"/>
		<path class="st1" d="M94.5,38.1c-0.2,0-0.3,0-0.5-0.1l-7.6-2c-1-0.3-1.6-1.3-1.3-2.3c0,0,0,0,0,0l2-7.6c0.3-1,1.3-1.6,2.3-1.3
			c1,0.3,1.6,1.3,1.3,2.3l0,0l-1.6,5.8l5.8,1.6c1,0.3,1.6,1.3,1.3,2.3C96.1,37.5,95.3,38.1,94.5,38.1L94.5,38.1z"/>
		<path class="st1" d="M91.5,44.1c-0.2,0-0.3,0-0.5-0.1l-12.6-3.4c-1-0.3-1.6-1.3-1.3-2.3c0,0,0,0,0,0l3.4-12.6
			c0.3-1,1.3-1.6,2.3-1.3c1,0.3,1.6,1.3,1.3,2.3l-2.9,10.8L92,40.4c1,0.3,1.6,1.3,1.3,2.3C93.1,43.5,92.4,44.1,91.5,44.1L91.5,44.1z
			"/>
		<path class="st1" d="M83.5,48.7c-0.2,0-0.3,0-0.5-0.1l-12.6-3.4c-1-0.3-1.6-1.3-1.3-2.3c0,0,0,0,0,0l3.4-12.6
			c0.3-1,1.3-1.6,2.3-1.3c1,0.3,1.6,1.3,1.3,2.3l0,0l-2.9,10.8L84,45.1c1,0.3,1.6,1.3,1.3,2.3C85.1,48.1,84.3,48.7,83.5,48.7
			L83.5,48.7z"/>
	</g>
	<path class="st0" d="M100,55.5l-11.1-3.7l-4.6,1.8H70.4v3.7h13.9l4.6,1.8L100,55.5z"/>
	<path class="st0" d="M75,12.2L66.2,20l-0.7,4.9l-6.9,12l3.2,1.8l6.9-12l3.9-3.1L75,12.2z"/>
	<path class="st0" d="M25,12.2l2.3,11.5l3.9,3.1l6.9,12l3.2-1.8l-6.9-12L33.8,20L25,12.2z"/>
	<path class="st0" d="M97.4,80.7l-31.1-18V48.2l31.1-18c0.9-0.5,1.2-1.6,0.7-2.5c-0.5-0.9-1.6-1.2-2.5-0.7c0,0,0,0,0,0L64.4,45
		l-12.6-7.3V1.8C51.9,0.8,51,0,50,0s-1.9,0.8-1.9,1.8v35.9L35.6,45l-31.1-18c-0.9-0.5-2-0.2-2.5,0.7c-0.5,0.9-0.2,2,0.7,2.5
		c0,0,0,0,0,0l31.1,18v14.5l-31.1,18c-0.9,0.5-1.2,1.6-0.7,2.5c0.5,0.9,1.6,1.2,2.5,0.7c0,0,0,0,0,0l31.1-18l12.6,7.3v35.9
		c0,1,0.8,1.8,1.9,1.8s1.9-0.8,1.9-1.8V73.2L64.4,66l31.1,18c0.9,0.5,2,0.2,2.5-0.7C98.6,82.4,98.3,81.3,97.4,80.7
		C97.4,80.7,97.4,80.7,97.4,80.7L97.4,80.7z M62.6,60.6l-3.8-2.2c0.6-1.9,0.6-4,0-5.9l3.8-2.2V60.6z M50,61c-3.1,0-5.6-2.5-5.6-5.5
		c0-3.1,2.5-5.6,5.6-5.6c3.1,0,5.6,2.5,5.6,5.6C55.6,58.6,53.1,61,50,61z M60.7,47.2l-3.8,2.2c-1.3-1.5-3.1-2.5-5.1-2.9v-4.4
		L60.7,47.2z M48.1,42.1v4.4c-2,0.4-3.7,1.4-5.1,2.9l-3.8-2.2L48.1,42.1z M37.4,50.4l3.8,2.2c-0.6,1.9-0.6,4,0,5.9l-3.8,2.2V50.4z
		 M39.3,63.8l3.8-2.2c1.3,1.5,3.1,2.5,5.1,2.9v4.4L39.3,63.8z M51.9,68.9v-4.4c2-0.4,3.7-1.4,5.1-2.9l3.8,2.2L51.9,68.9z"/>
</g>
</svg>
